<?xml version="1.0" encoding="utf-8"?>
<!-- Generator: Adobe Illustrator 19.0.0, SVG Export Plug-In . SVG Version: 6.00 Build 0)  -->
<svg version="1.1" id="图层_1" xmlns="http://www.w3.org/2000/svg" xmlns:xlink="http://www.w3.org/1999/xlink" x="0px" y="0px"
	 viewBox="0 0 24 24" style="enable-background:new 0 0 24 24;" xml:space="preserve">
<style type="text/css">
	.st0{fill:none;}
	.st1{fill:#F8D6BA;}
</style>
<rect id="_x3C_切片_x3E_" class="st0" width="24" height="24"/>
<path id="XMLID_2_" class="st1" d="M10.9,8.2c0,0.9-2.2,4-6.5,9.4c-0.5-0.2-1-0.5-1.5-0.9c2.1-3,3.9-5.3,5.2-7.1
	c-2-0.3-4.2-0.7-6.5-1.1c0-0.5,0.1-1,0.3-1.5C4.9,7.1,7.9,7.5,10.9,8.2z M9.8,3.9C9.6,4.5,9.4,5,9.1,5.5C7.7,5.4,6.5,5.1,5.4,4.4
	c0.1-0.6,0.3-1.1,0.5-1.6C7.1,2.9,8.4,3.3,9.8,3.9z M8.8,15.2c0,0.3,0,0.5,0.1,0.7c0.9,0.1,1.8,0.2,2.7,0.4c0,0.6-0.1,1.1-0.3,1.7
	c-0.7,0-1.5-0.1-2.3-0.2v0.4c0,1.2-0.1,2.2-0.2,2.8c-0.2,0.1-0.5,0.2-0.8,0.2c-0.4,0-0.7-0.1-0.8-0.2c-0.2-0.8-0.3-1.7-0.3-2.8
	c0-1,0.1-2,0.3-3c0.3-0.1,0.6-0.1,0.8-0.1C8.3,15.1,8.5,15.1,8.8,15.2z M18.3,6.8c-0.7,3.5-1.4,6.9-2,10.4c1.4,0.2,2.8,0.4,4.3,0.6
	c0.1-0.6,0.2-1.3,0.3-1.9c0.5,0.1,0.9,0.1,1.5,0.2c-0.1,1.1-0.2,2.3-0.4,3.4c-0.7,0-2.2-0.1-4.5-0.3c-1.7-0.3-2.8-0.6-3.3-0.9
	c0.7-4.4,1.6-8.3,2.7-11.7C17.3,6.7,17.8,6.8,18.3,6.8z"/>
</svg>
