<?xml version="1.0" encoding="utf-8"?>
<!-- Generator: Adobe Illustrator 19.0.0, SVG Export Plug-In . SVG Version: 6.00 Build 0)  -->
<svg version="1.1" id="图层_1" xmlns="http://www.w3.org/2000/svg" xmlns:xlink="http://www.w3.org/1999/xlink" x="0px" y="0px"
	 viewBox="0 0 24 24" style="enable-background:new 0 0 24 24;" xml:space="preserve">
<style type="text/css">
	.st0{fill:none;}
	.st1{fill:#E4FF03;}
</style>
<rect id="_x3C_切片_x3E_" class="st0" width="24" height="24"/>
<path id="XMLID_2_" class="st1" d="M11.1,5.6c0,0.5-0.1,1.1-0.2,1.6C9.6,7.1,8.2,7.1,6.9,7C6.3,8,5.7,9.1,5,10.1
	c-0.5,0.9-1,1.7-1.4,2.4c-0.2,0.3-0.4,0.6-0.6,0.9c-0.2,0.3-0.3,0.5-0.5,0.7c-0.7-0.2-1.2-0.5-1.5-1c0.4-0.7,1.1-1.9,2.1-3.6
	c0.5-0.9,1.1-1.7,1.7-2.6C4,6.6,3,6.5,2.1,6.3c0-0.6,0.1-1.1,0.2-1.6C5.3,4.8,8.2,5.1,11.1,5.6z M10.4,18.3
	c-1.9,0.2-3.8,0.3-5.6,0.3c-0.3-1.9-0.5-3.8-0.5-5.5c1.9-0.1,3.9-0.2,6-0.2C10.4,14.7,10.4,16.5,10.4,18.3z M6.3,17l2.4-0.2
	l-0.1-2.3l-2.5,0.1L6.3,17z M19.1,16.9c-2.5,0.5-5,0.8-7.4,1c-0.2-0.6-0.3-1.1-0.3-1.7c2.6-0.4,5-0.7,7.3-1
	C18.9,15.7,19,16.3,19.1,16.9z M14.8,6.4c0.1,1.7,0.1,3.4,0.1,5.1c2.2,0,4.8,0,7.9-0.1c0,5.2-0.1,8.2-0.3,9.2
	c-0.3,0.1-0.8,0.1-1.4,0.1c-1.2,0-2.2-0.1-2.8-0.1c-0.1-0.2-0.1-0.4-0.1-0.7c0-0.3,0-0.5,0.1-0.7h2.4c0-2,0-4.1,0-6.2
	c-2.6,0-5.1,0.1-7.5,0.1c-0.2-1.3-0.3-3.5-0.3-6.8c0.2,0,0.5-0.1,0.9-0.1C14.2,6.3,14.5,6.3,14.8,6.4z M21.5,3.9
	c0,2.3-0.1,4.5-0.2,6.3c-0.2,0.1-0.4,0.1-0.8,0.1c-0.4,0-0.7,0-0.8-0.1c0-1.6,0-3.2,0.1-4.8c-2.3-0.2-4.5-0.4-6.4-0.7
	c0-0.6,0.1-1.1,0.3-1.5C15.8,3.4,18.4,3.7,21.5,3.9z"/>
</svg>
