<?xml version="1.0" encoding="utf-8"?>
<!-- Generator: Adobe Illustrator 19.0.0, SVG Export Plug-In . SVG Version: 6.00 Build 0)  -->
<svg version="1.1" id="图层_1" xmlns="http://www.w3.org/2000/svg" xmlns:xlink="http://www.w3.org/1999/xlink" x="0px" y="0px"
	 viewBox="0 0 24 24" style="enable-background:new 0 0 24 24;" xml:space="preserve">
<style type="text/css">
	.st0{fill:none;}
	.st1{fill:#FF0000;}
</style>
<rect id="_x3C_切片_x3E_" class="st0" width="24" height="24"/>
<path id="XMLID_2_" class="st1" d="M8,2.4c-0.2,0.3-0.5,0.7-0.7,1c1.8,1.1,3.4,2.3,5,3.6c-0.2,0.5-0.5,1-0.9,1.4
	c-1.7-1-3.4-2.2-5.1-3.5C6,5.2,5.7,5.6,5.5,5.9C4.9,6.6,4.4,7.3,3.8,8.1C3.2,8.8,2.7,9.5,2.2,10C1.6,9.8,1.2,9.4,0.8,9.1
	c2-3,3.9-5.5,5.5-7.6C6.9,1.8,7.5,2.1,8,2.4z M10.6,13.1c-0.2,1.6-0.9,3.6-2.2,6c0.6,0.3,1.2,0.7,1.8,1c-0.1,0.6-0.3,1.1-0.7,1.5
	c-1.9-0.9-3.7-1.8-5.3-2.8c0.2-0.6,0.4-1.1,0.7-1.5c0.7,0.3,1.4,0.6,2,1c0.5-1.2,1-2.4,1.5-3.6c-2.2-0.1-3.9-0.3-5.3-0.5
	C3,14,3,13.7,3,13.4c0-0.2,0.1-0.5,0.1-0.7C6.9,12.7,9.4,12.9,10.6,13.1z M8.6,9.9c-0.2,0.5-0.5,0.9-0.9,1.2C6.8,10.6,6,9.9,5.3,9.2
	C5.5,8.8,5.8,8.4,6.1,8C7,8.5,7.8,9.2,8.6,9.9z M23,3.2c0,0.5-0.1,0.9-0.2,1.3c-1.6,0-3.2-0.1-4.8-0.2c-0.3,1.3-0.6,2.2-0.8,2.8
	c-0.7,0-1.2-0.1-1.6-0.4c0.2-1,0.4-1.8,0.6-2.6c-1.3-0.1-2.6-0.3-3.8-0.5c0-0.5,0-0.9,0.1-1.4C16,2.4,19.5,2.7,23,3.2z M14.7,8.2
	c0,2.9-0.1,5.7-0.4,8.4c-0.6,0-1.1,0-1.7-0.1c0-2.7,0.1-5.5,0.4-8.4C13.5,8.1,14.1,8.2,14.7,8.2z M19.7,12c-0.6,1.8-1.4,3.6-2.1,5.3
	c1.7,0.7,3.2,1.6,4.7,2.7c-0.1,0.4-0.4,0.9-0.7,1.3c-1.4-0.5-3-1.3-4.7-2.5c-0.5,1.2-1.1,2.3-1.6,3.5c-0.6-0.1-1-0.3-1.5-0.7
	c1.3-3.6,2.8-7.1,4.3-10.4C18.7,11.6,19.2,11.8,19.7,12z M23.2,8.1c0,3.1-0.1,5.8-0.2,8.2c-0.2,0.1-0.5,0.1-0.8,0.1
	c-0.3,0-0.6-0.1-0.8-0.2V9.6c-1.8-0.1-3.5-0.2-5.2-0.5C16,9,16,8.7,16,8.4c0-0.2,0-0.5,0.1-0.7C18.4,7.7,20.7,7.8,23.2,8.1z"/>
</svg>
