<?xml version="1.0" encoding="utf-8"?>
<!-- Generator: Adobe Illustrator 19.0.0, SVG Export Plug-In . SVG Version: 6.00 Build 0)  -->
<svg version="1.1" id="图层_1" xmlns="http://www.w3.org/2000/svg" xmlns:xlink="http://www.w3.org/1999/xlink" x="0px" y="0px"
	 viewBox="0 0 24 24" style="enable-background:new 0 0 24 24;" xml:space="preserve">
<style type="text/css">
	.st0{fill:none;}
	.st1{fill:#FF0000;}
</style>
<rect id="_x3C_切片_x3E_" class="st0" width="24" height="24"/>
<path id="XMLID_2_" class="st1" d="M4.4,7.8C4.4,8.4,4.5,9,4.5,9.6c1-0.2,2.1-0.3,3.1-0.3c0.1,0.5,0.1,1,0.1,1.5
	c-1.1,0.3-2.2,0.4-3.2,0.5c0,0.5,0.1,1,0.1,1.5c0.9-0.1,1.9-0.2,2.9-0.3c0.1,0.5,0.1,1,0.1,1.5c-1.1,0.3-2.1,0.4-3,0.4
	c0,0.7,0,1.4,0,2c1.6-0.1,3.2-0.1,4.9-0.2c-0.1-3.1-0.2-6-0.2-8.7c0.1-0.1,0.4-0.1,0.9-0.2c0.4,0,0.7,0.1,0.9,0.1
	c0.2,2.8,0.3,5.7,0.3,8.8H13c0,0.2,0.1,0.5,0.1,0.7v0.8c-0.5,0.1-1,0.1-1.4,0.1v2.5c-0.2,0.1-0.5,0.1-0.9,0.1c-0.5,0-0.8,0-0.9-0.1
	c-0.1-0.8-0.1-1.6-0.1-2.4c-2.7,0.2-5.5,0.3-8.1,0.3c-0.1-0.5-0.2-1-0.2-1.6c0.5,0,1-0.1,1.6-0.1c-0.3-2.8-0.5-5.7-0.5-8.7
	c0.3,0,0.6-0.1,1-0.1C3.9,7.8,4.1,7.8,4.4,7.8z M13.8,4.5c0,0.5-0.1,1.1-0.2,1.5C9.8,6,6,5.7,2.3,5.2c0-0.6,0.1-1.1,0.2-1.6
	C6.2,3.7,10,4,13.8,4.5z M17.5,14.8c0.5-0.9,1-1.8,1.5-2.7c-1.7-0.2-3.1-0.3-4.5-0.5c0-0.6,0.1-1.1,0.2-1.6c2.2,0.1,4.6,0.3,7,0.6
	c-0.6,1.6-1.3,3.3-2.3,5c1.1,0.6,2.3,1.2,3.3,1.8c-0.1,0.4-0.3,0.9-0.7,1.3c-1.2-0.3-2.4-0.8-3.7-1.4c-0.5,0.7-1,1.5-1.5,2.2
	c-0.6-0.2-1.1-0.5-1.5-0.9c0.4-0.7,0.8-1.4,1.2-2.1c-0.9-0.4-1.8-0.9-2.8-1.5c0.1-0.5,0.3-1,0.6-1.4C15.4,14,16.4,14.4,17.5,14.8z"
	/>
</svg>
