<?xml version="1.0" encoding="utf-8"?>
<!-- Generator: Adobe Illustrator 19.0.0, SVG Export Plug-In . SVG Version: 6.00 Build 0)  -->
<svg version="1.1" id="图层_1" xmlns="http://www.w3.org/2000/svg" xmlns:xlink="http://www.w3.org/1999/xlink" x="0px" y="0px"
	 viewBox="0 0 24 24" style="enable-background:new 0 0 24 24;" xml:space="preserve">
<style type="text/css">
	.st0{fill:#E4FF03;}
	.st1{fill:none;}
</style>
<path id="XMLID_7_" class="st0" d="M5.2,5.1C5.7,5,6.3,4.9,6.9,4.9C7,5.9,7,6.8,7.2,7.8C8.3,7.8,9.2,7.9,10,8
	c0.1,0.2,0.1,0.5,0.1,0.8c0,0.4-0.1,0.7-0.1,0.8C9.8,9.7,8.9,9.7,7.3,9.7c0.1,1,0.2,2,0.2,3.1c0.6,0,1.3-0.1,1.9-0.1
	c0.1,0.2,0.1,0.5,0.1,0.7c0,0.3-0.1,0.6-0.1,0.8c-0.4,0.1-1,0.2-1.8,0.3c0.1,1.1,0.1,2.1,0.2,3.1c-0.5,0.2-1,0.2-1.7,0.2
	c-0.1-1.1-0.2-2.1-0.3-3.2c-0.7,0.1-1.5,0.2-2.4,0.2C3.1,14.6,3,14,3,13.3c0.9-0.1,1.8-0.2,2.6-0.3c-0.1-1.1-0.2-2.1-0.2-3.2
	c-1.9,0-3,0-3.2-0.1C2.2,9.4,2.1,9.1,2.1,8.7c0-0.3,0-0.6,0.1-0.9c0.9-0.1,1.9-0.1,3-0.1C5.2,6.9,5.2,6,5.2,5.1z M21.7,6.7
	c0.1,1.3,0.2,2.7,0.2,4.2v6.3c-1.5,0.1-3.9,0.1-7.4,0.1c-0.8,0-1.5,0-2.1-0.1c-0.1-0.3-0.1-0.6-0.1-0.8v-0.7
	c2.7-0.1,5.3-0.1,7.8-0.1c0-2.2-0.1-4.6-0.2-7.4c-2.8,0.1-5.4,0.1-7.9,0.1c-0.1-0.3-0.1-0.5-0.1-0.7c0-0.2,0-0.5,0.1-0.7
	c1.2-0.2,3.1-0.3,5.8-0.3C18.9,6.6,20.2,6.6,21.7,6.7z M18.8,11.6c0.1,0.2,0.1,0.4,0.1,0.7c0,0.4,0,0.6-0.1,0.7
	c-0.2,0.1-1.4,0.1-3.5,0.1c-1.9,0-3,0-3.2-0.1C12,12.9,12,12.6,12,12.3c0-0.3,0-0.5,0.1-0.7c0.9-0.1,2-0.1,3.1-0.1
	C16.7,11.5,17.9,11.5,18.8,11.6z"/>
<rect id="_x3C_切片_x3E_" class="st1" width="24" height="24"/>
</svg>
