<?xml version="1.0" encoding="utf-8"?>
<!-- Generator: Adobe Illustrator 19.0.0, SVG Export Plug-In . SVG Version: 6.00 Build 0)  -->
<svg version="1.1" id="图层_1" xmlns="http://www.w3.org/2000/svg" xmlns:xlink="http://www.w3.org/1999/xlink" x="0px" y="0px"
	 viewBox="0 0 24 24" style="enable-background:new 0 0 24 24;" xml:space="preserve">
<style type="text/css">
	.st0{fill:none;}
	.st1{fill:#00B7EE;}
</style>
<rect id="_x3C_切片_x3E_" class="st0" width="24" height="24"/>
<path id="XMLID_2_" class="st1" d="M3.8,5.4c0-0.7,0.1-1.3,0.2-1.9c5.5,0,10.9,0.2,16.2,0.7c0,0.6-0.1,1.2-0.2,1.8
	c-3.1,0-6.2-0.1-9.2-0.2C10.4,7,10,8.3,9.6,9.5c3,0.3,6,0.7,9.1,1.4c0,1.6,0.1,3.1,0.1,4.4c0,2.1-0.1,3.8-0.3,5
	c-1.1,0.1-2.3,0.2-3.8,0.2c-0.1-0.5-0.2-1-0.2-1.5c0.7-0.1,1.5-0.1,2.3-0.2c0-1.4,0.1-3.5,0.1-6.2c-2.7-0.4-5.3-0.9-7.8-1.4
	c-0.9,2.4-1.8,4.8-2.8,7.2c-0.6,0-1.2-0.3-1.8-0.7c1.4-4,2.8-8,4.4-11.9C7.2,5.6,5.5,5.5,3.8,5.4z"/>
</svg>
