<?xml version="1.0" encoding="utf-8"?>
<!-- Generator: Adobe Illustrator 19.0.0, SVG Export Plug-In . SVG Version: 6.00 Build 0)  -->
<svg version="1.1" id="图层_1" xmlns="http://www.w3.org/2000/svg" xmlns:xlink="http://www.w3.org/1999/xlink" x="0px" y="0px"
	 viewBox="0 0 24 24" style="enable-background:new 0 0 24 24;" xml:space="preserve">
<style type="text/css">
	.st0{fill:none;}
	.st1{fill:#EA68A2;}
</style>
<rect id="_x3C_切片_x3E_" class="st0" width="24" height="24"/>
<path id="XMLID_2_" class="st1" d="M4.2,6.2C4.7,6.1,5.3,6,5.9,6C6,6.8,6.1,7.7,6.1,8.5c1,0,1.8,0.1,2.5,0.2
	c0.1,0.2,0.1,0.4,0.1,0.8c0,0.4-0.1,0.7-0.1,0.8c-0.2,0.1-1,0.1-2.3,0.1c0.1,0.9,0.1,1.7,0.2,2.6c0.6,0,1.1-0.1,1.6-0.1
	c0.1,0.2,0.1,0.5,0.1,0.7c0,0.3-0.1,0.6-0.1,0.8c-0.4,0.1-0.9,0.2-1.5,0.3c0.1,1,0.1,1.9,0.2,2.8c-0.5,0.2-1,0.3-1.7,0.3
	c-0.1-1-0.2-1.9-0.3-2.9C4.2,14.9,3.5,15,2.7,15c-0.3-0.4-0.4-0.9-0.4-1.7c0.8-0.1,1.6-0.2,2.3-0.3c-0.1-0.9-0.2-1.8-0.2-2.7
	c-1.7,0-2.7,0-2.8-0.1C1.5,10,1.5,9.8,1.5,9.4c0-0.3,0-0.6,0.1-0.8c0.8-0.1,1.7-0.1,2.7-0.1C4.3,7.7,4.2,6.9,4.2,6.2z M13.5,1.7
	c0,0.7,0.1,1.3,0.1,1.9c1.3,0.1,2.6,0.1,4,0.2c0.1-0.6,0.1-1.2,0.2-1.7C18,2,18.4,2,18.7,2c0.4,0.1,0.6,0.1,0.8,0.2
	c0,0.6-0.1,1.2-0.1,1.8c0.9,0.1,1.8,0.2,2.7,0.2c0,0.5-0.1,1-0.2,1.6c-0.9,0-1.8,0-2.7-0.1c-0.1,0.5-0.1,1-0.2,1.5
	c-0.1,0.1-0.4,0.1-0.9,0.1c-0.4,0-0.7-0.1-0.9-0.2c0-0.5,0-1,0.1-1.5c-1.3-0.1-2.5-0.1-3.8-0.2c0,0.4,0,0.8,0,1.1
	c0,0.2-0.1,0.4-0.3,0.5c-0.1,0.1-0.4,0.1-0.9,0.1c-0.3,0-0.6,0-0.7-0.1c-0.1-0.1-0.2-0.2-0.2-0.4c0-0.5,0-1,0-1.5
	c-1-0.1-1.9-0.2-2.9-0.3V4.1c0-0.2,0-0.5,0.1-0.7c0.9,0,1.9,0,2.9,0.1c0-0.6,0-1.2,0.1-1.8c0.3-0.1,0.5-0.1,0.8-0.1
	C13,1.6,13.3,1.6,13.5,1.7z M9.9,13.1c-0.3-0.4-0.6-0.9-0.9-1.5c2.9-1.5,5.9-2.8,8.8-3.9c0.3,0.4,0.6,0.9,0.8,1.4
	c-0.3,0.1-0.5,0.2-0.7,0.3c1.6,1.4,3.1,2.7,4.5,4.2c-0.3,0.5-0.7,1-1.1,1.3c-1.8-1.5-3.5-3-5-4.6C14.2,11.3,12,12.2,9.9,13.1z
	 M19.7,21.9c-2.2,0.4-4.6,0.6-7.2,0.6c-0.4-1-0.6-2.5-0.7-4.7c2.3-0.4,4.8-0.6,7.5-0.6C19.6,18.7,19.7,20.2,19.7,21.9z M18.4,14.4
	c0,0.4-0.1,0.9-0.1,1.4c-2.2,0-4.2-0.2-6.1-0.5c0-0.5,0-1,0.1-1.4C14.2,14,16.2,14.1,18.4,14.4z M18,20.7l-0.3-2l-4,0.2l0.3,2.1
	L18,20.7z"/>
</svg>
